<?xml version="1.0" standalone="no"?>
<!DOCTYPE svg PUBLIC "-//W3C//DTD SVG 20010904//EN"
 "http://www.w3.org/TR/2001/REC-SVG-20010904/DTD/svg10.dtd">
<svg version="1.0" xmlns="http://www.w3.org/2000/svg"
 width="670.000000pt" height="670.000000pt" viewBox="0 0 670.000000 670.000000"
 preserveAspectRatio="xMidYMid meet">
<metadata>
Created by potrace 1.14, written by Peter Selinger 2001-2017
</metadata>
<g transform="translate(0.000000,670.000000) scale(0.100000,-0.100000)"
fill="#000000" stroke="none">
<path d="M4473 5045 c-7 -8 -13 -21 -13 -30 0 -8 -4 -15 -8 -15 -13 0 -36
-100 -37 -160 0 -30 5 -67 12 -82 8 -15 13 -30 13 -33 -1 -34 2 -45 10 -40 6
4 10 -7 10 -26 0 -35 -48 -131 -61 -123 -5 3 -9 1 -9 -5 0 -5 -21 -32 -46 -58
-25 -26 -58 -63 -72 -82 -15 -19 -50 -58 -79 -88 -29 -30 -53 -57 -53 -60 0
-3 -16 -21 -35 -40 -19 -19 -35 -37 -35 -41 0 -4 -12 -19 -27 -33 -16 -13 -53
-53 -83 -88 -30 -36 -72 -81 -92 -103 -21 -21 -35 -38 -33 -38 3 0 -12 -18
-33 -40 -54 -58 -62 -68 -62 -80 0 -5 -3 -9 -7 -8 -12 3 -73 -55 -73 -69 0 -6
-6 -16 -13 -20 -26 -16 -71 -84 -60 -91 18 -11 634 -7 641 5 4 5 15 13 25 16
11 4 21 16 24 27 3 11 8 20 12 20 4 0 15 20 26 45 11 25 23 45 28 45 4 0 7 9
7 19 0 10 7 22 16 25 8 3 13 10 10 14 -3 5 3 18 14 30 11 11 22 32 26 46 3 14
10 26 16 26 5 0 7 4 3 9 -3 6 0 13 8 18 7 4 21 27 31 51 11 23 22 42 26 42 4
0 17 21 29 48 32 69 53 107 63 110 4 2 8 12 8 23 0 10 4 19 9 19 5 0 11 10 15
23 3 12 14 32 26 44 11 12 20 27 20 33 0 6 7 21 15 34 14 21 14 24 0 29 -8 4
-15 16 -15 27 0 23 -5 22 157 24 75 1 116 5 124 14 7 6 19 12 26 12 17 0 29
10 99 78 47 46 52 55 40 68 -8 8 -19 14 -25 14 -6 0 -11 5 -11 10 0 6 -6 10
-12 10 -7 0 -26 11 -42 25 -16 14 -32 25 -36 25 -3 0 -15 8 -26 18 -10 10 -34
27 -51 37 -18 11 -33 23 -33 27 0 4 -6 8 -13 8 -7 0 -23 10 -37 23 -14 13 -40
32 -59 43 -19 10 -43 26 -52 34 -46 40 -54 45 -67 42 -8 -2 -11 1 -8 7 4 5 -3
12 -14 16 -11 3 -20 11 -20 16 0 5 -7 9 -15 9 -8 0 -15 4 -15 9 0 5 -8 11 -17
14 -10 4 -31 17 -48 31 -25 20 -32 22 -42 11z"/>
<path d="M3443 4903 c-13 -2 -23 -11 -23 -19 0 -8 -3 -13 -7 -12 -11 4 -63
-44 -63 -57 0 -6 -8 -20 -18 -31 -20 -22 -74 -132 -91 -184 -6 -19 -12 -57
-13 -83 0 -26 -6 -50 -11 -54 -5 -3 -4 -9 4 -13 10 -7 10 -12 -2 -26 -9 -11
-9 -15 -1 -10 9 5 12 -7 12 -51 0 -52 25 -152 43 -170 4 -3 7 -15 7 -25 0 -10
5 -18 10 -18 6 0 10 -5 10 -11 0 -25 127 -159 150 -159 13 0 13 -1 0 -10 -12
-8 -9 -10 12 -10 14 0 28 -6 31 -12 3 -10 9 -10 29 0 24 13 35 42 15 42 -5 0
-6 8 -2 18 10 24 13 62 6 62 -3 0 -6 31 -6 69 0 38 -3 67 -7 64 -16 -9 -8 104
7 117 13 10 15 9 15 -11 2 -66 13 -165 20 -169 4 -3 10 -32 13 -65 8 -88 18
-135 28 -135 14 0 69 56 69 70 0 7 3 10 7 7 3 -4 18 10 31 31 14 20 30 40 36
44 5 3 11 17 13 30 2 13 8 25 13 26 6 2 10 12 10 22 0 10 4 21 9 24 5 4 12 29
16 56 4 28 10 48 14 46 8 -5 6 170 -3 209 -4 17 -9 39 -10 50 -1 11 -8 30 -14
42 -7 12 -12 29 -12 37 0 9 -4 16 -10 16 -5 0 -10 7 -10 16 0 14 -53 90 -72
105 -5 3 -19 20 -33 39 -14 19 -25 30 -25 26 0 -4 -6 -1 -14 6 -62 59 -110 75
-183 61z"/>
<path d="M3030 4023 c-14 -2 -32 -11 -40 -18 -8 -7 -25 -16 -37 -19 -13 -4
-23 -12 -23 -17 0 -5 -6 -9 -14 -9 -25 0 -74 -53 -84 -90 -5 -22 -6 -45 0 -60
15 -42 101 -107 168 -128 92 -28 248 -14 292 27 12 12 25 21 29 21 17 0 77 72
72 86 -6 17 1 16 -111 19 -106 2 -139 15 -39 15 47 0 67 4 67 13 0 8 3 8 9 -2
8 -12 12 -12 25 -2 9 7 25 11 36 8 24 -6 27 15 5 37 -37 37 -102 84 -125 91
-14 4 -28 12 -31 17 -7 11 -160 20 -199 11z"/>
<path d="M1514 3476 l-26 -8 5 -92 c6 -99 25 -255 33 -268 3 -4 9 -32 15 -61
9 -53 16 -82 19 -82 1 0 3 -16 5 -35 2 -19 9 -36 14 -38 6 -2 11 -14 11 -27 0
-13 5 -27 10 -30 6 -3 10 -13 10 -21 0 -14 33 -93 63 -154 26 -51 62 -115 68
-120 3 -3 9 -12 12 -20 18 -37 119 -180 128 -180 5 0 9 -5 9 -10 0 -12 8 -23
57 -75 18 -19 37 -35 43 -35 5 0 9 -4 7 -9 -5 -18 176 -180 283 -251 36 -25
67 -47 70 -50 3 -3 24 -14 48 -24 23 -11 42 -22 42 -25 0 -6 40 -25 78 -36 12
-3 20 -10 17 -14 -2 -5 16 -14 40 -21 25 -7 45 -17 45 -21 0 -5 10 -9 23 -9
13 0 27 -4 32 -8 11 -10 87 -33 125 -39 13 -3 27 -8 30 -12 3 -4 32 -13 65
-20 33 -7 65 -13 70 -14 6 -2 15 -6 21 -9 16 -11 185 -22 314 -22 140 0 379
12 391 20 11 7 40 14 112 27 31 6 57 14 57 19 0 4 11 8 23 8 13 0 26 3 30 6
10 10 -17 44 -34 44 -9 0 -19 7 -23 15 -3 8 -12 15 -21 15 -8 0 -15 4 -15 9 0
6 -18 20 -40 32 -22 13 -40 26 -40 31 0 4 -7 8 -15 8 -8 0 -15 5 -15 10 0 6
-7 10 -15 10 -7 0 -18 6 -22 13 -4 7 -21 21 -38 31 -16 11 -38 28 -47 38 -9
11 -19 19 -22 19 -13 -1 -42 13 -58 28 -33 31 -47 41 -58 41 -5 0 -10 3 -10 8
0 4 -17 16 -37 27 -21 11 -44 28 -51 37 -7 10 -19 18 -27 18 -8 0 -18 6 -22
13 -9 13 -68 57 -78 57 -3 0 -18 11 -33 25 -15 14 -30 25 -35 25 -8 0 -23 11
-56 41 -10 9 -33 25 -52 35 -19 11 -41 26 -49 34 -8 8 -24 21 -35 28 -11 7
-35 22 -52 33 -18 12 -33 24 -33 28 0 3 -17 15 -37 26 -21 11 -46 26 -55 35
-35 31 -47 40 -58 40 -5 0 -10 4 -10 9 0 5 -8 11 -17 14 -26 9 -136 91 -141
105 -6 18 13 15 66 -13 26 -13 59 -29 75 -34 15 -6 27 -15 27 -20 0 -5 10 -13
23 -17 12 -4 41 -20 64 -35 23 -16 45 -29 50 -29 4 0 21 -11 36 -24 16 -14 42
-28 58 -31 16 -4 29 -12 29 -19 0 -7 18 -20 40 -30 22 -10 40 -22 40 -27 0 -5
6 -9 13 -9 6 0 48 -23 92 -50 44 -28 91 -56 105 -62 14 -7 27 -15 30 -18 10
-10 45 -31 63 -36 9 -4 17 -10 17 -15 0 -5 7 -9 15 -9 8 0 15 -4 15 -10 0 -5
11 -12 25 -16 14 -3 25 -9 25 -14 0 -4 17 -15 37 -26 21 -10 59 -34 85 -52 27
-17 48 -30 48 -27 0 3 10 -3 22 -15 12 -11 27 -20 33 -20 6 0 20 -8 31 -18 11
-9 36 -26 57 -36 20 -11 37 -23 37 -28 0 -4 6 -8 14 -8 8 0 21 -6 28 -12 45
-42 92 -49 103 -15 7 24 7 186 -1 199 -2 4 -7 40 -10 80 -3 40 -10 77 -15 83
-5 5 -9 20 -9 35 -1 23 -19 82 -47 151 -6 14 -17 45 -24 70 -7 24 -16 46 -19
49 -11 8 -50 95 -50 110 0 7 -3 10 -7 7 -3 -4 -17 15 -30 41 -41 79 -51 95
-67 104 -9 5 -16 15 -16 22 0 7 -8 21 -18 32 -10 10 -25 29 -33 41 -24 34
-110 125 -149 156 -19 15 -47 38 -63 50 -15 12 -36 30 -46 39 -30 26 -153 98
-168 98 -7 0 -13 4 -13 9 0 7 -14 13 -48 21 -4 1 -14 7 -22 15 -8 7 -42 21
-75 30 -33 10 -64 20 -70 24 -17 10 -97 31 -145 37 -25 3 -48 11 -52 17 -5 8
-8 7 -8 -3 0 -11 -2 -12 -8 -2 -5 7 -32 13 -68 13 -32 1 -61 5 -64 10 -12 19
-1052 33 -1106 15z"/>
<path d="M3128 3479 c-5 -3 16 -18 46 -33 31 -15 58 -31 61 -37 4 -5 16 -9 27
-9 12 0 18 -3 15 -6 -4 -4 10 -15 29 -26 20 -11 41 -23 48 -28 62 -51 76 -61
76 -53 0 4 11 -4 24 -19 13 -16 27 -28 31 -28 10 0 13 -3 123 -110 46 -44 88
-80 93 -80 5 0 8 -4 7 -9 -2 -5 5 -17 15 -28 10 -10 36 -43 58 -73 22 -30 48
-66 59 -78 11 -13 20 -29 20 -36 0 -7 8 -21 18 -32 20 -23 52 -89 52 -109 0
-8 3 -15 8 -15 4 0 15 -21 26 -48 10 -26 24 -61 32 -78 8 -18 19 -56 25 -85 6
-30 14 -61 17 -69 3 -8 6 -17 7 -20 0 -3 4 -14 7 -25 9 -28 21 -115 19 -143 0
-13 3 -20 9 -17 6 3 10 1 10 -4 0 -6 -6 -11 -12 -11 -10 0 -10 -2 0 -8 6 -5
12 -19 11 -33 0 -13 0 -95 1 -181 1 -148 2 -158 20 -158 10 0 23 6 27 13 4 7
28 19 52 27 24 8 49 19 55 25 6 5 27 18 46 28 73 38 90 48 90 58 0 5 5 9 11 9
6 0 25 11 43 25 17 14 40 32 51 40 41 32 78 61 98 78 11 9 24 17 29 17 5 0 7
4 3 10 -3 5 7 17 22 27 15 10 34 26 41 36 8 10 31 35 51 55 20 20 48 53 61 72
14 19 32 42 40 51 28 30 49 57 64 86 8 15 15 24 16 18 0 -5 10 10 21 35 11 24
23 47 28 50 9 6 41 75 41 88 0 5 7 13 16 16 8 3 12 11 8 17 -3 6 -1 14 5 18 6
4 13 16 16 27 2 10 13 37 24 59 12 21 21 47 21 57 0 10 5 18 10 18 6 0 10 14
10 30 0 17 4 30 9 30 5 0 12 23 16 50 4 28 10 50 14 50 4 0 8 19 10 42 1 23 6
47 10 53 5 5 12 33 15 60 4 28 9 66 12 85 3 19 7 73 10 121 5 71 3 87 -11 99
-13 11 -194 13 -1036 14 -562 1 -1025 -2 -1031 -5z"/>
</g>
</svg>
